<svg width="228" height="78" viewBox="0 0 228 78" fill="none" xmlns="http://www.w3.org/2000/svg">
<path d="M42.9773 15.4545V62H34.4773L14.2273 32.7045H13.8864V62H4.04545V15.4545H12.6818L32.7727 44.7273H33.1818V15.4545H42.9773ZM51.108 62V15.4545H82.4716V23.5682H60.9489V34.6591H80.858V42.7727H60.9489V53.8864H82.5625V62H51.108Z" fill="#2E393C"/>
<path d="M171.795 16.4545H181.636V46.6818C181.636 50.0758 180.826 53.0455 179.205 55.5909C177.598 58.1364 175.348 60.1212 172.455 61.5455C169.561 62.9545 166.189 63.6591 162.341 63.6591C158.477 63.6591 155.098 62.9545 152.205 61.5455C149.311 60.1212 147.061 58.1364 145.455 55.5909C143.848 53.0455 143.045 50.0758 143.045 46.6818V16.4545H152.886V45.8409C152.886 47.6136 153.273 49.1894 154.045 50.5682C154.833 51.947 155.939 53.0303 157.364 53.8182C158.788 54.6061 160.447 55 162.341 55C164.25 55 165.909 54.6061 167.318 53.8182C168.742 53.0303 169.841 51.947 170.614 50.5682C171.402 49.1894 171.795 47.6136 171.795 45.8409V16.4545ZM189.733 63V16.4545H208.097C211.627 16.4545 214.634 17.1288 217.119 18.4773C219.604 19.8106 221.498 21.6667 222.801 24.0455C224.119 26.4091 224.778 29.1364 224.778 32.2273C224.778 35.3182 224.112 38.0455 222.778 40.4091C221.445 42.7727 219.513 44.6136 216.983 45.9318C214.468 47.25 211.422 47.9091 207.847 47.9091H196.142V40.0227H206.256C208.15 40.0227 209.71 39.697 210.938 39.0455C212.18 38.3788 213.104 37.4621 213.71 36.2955C214.331 35.1136 214.642 33.7576 214.642 32.2273C214.642 30.6818 214.331 29.3333 213.71 28.1818C213.104 27.0151 212.18 26.1136 210.938 25.4773C209.695 24.8258 208.119 24.5 206.21 24.5H199.574V63H189.733Z" fill="#FF7C40"/>
<path d="M116 38.7527L97.4 62L85 62L101.841 38.7527L85 16L97.4 16L116 38.7527Z" fill="#2E393C"/>
<path d="M134.699 61.9971H122.199L113 51.123L120.348 41.9395L134.699 61.9971ZM135.102 16.1084L120.546 35.875L113.226 26.9199L122.702 16L135.102 16.1084Z" fill="#2E393C"/>
</svg>
