<svg width="108" height="110" viewBox="0 0 108 110" fill="none" xmlns="http://www.w3.org/2000/svg">
<path d="M62 0V62H48.4635L16.2148 22.9775H15.6719V62H0V0H13.7536L45.749 38.9922H46.4005V0H62Z" fill="#2E393C"/>
<path d="M60.673 40L75.1838 63.8574H75.7459L90.327 40H107.508L85.5487 75L108 110H90.5027L75.7459 86.1084H75.1838L60.427 110H43L65.5216 75L43.4216 40H60.673Z" fill="#2E393C"/>
<path d="M91 0H92.1338C92.1931 0 92.2496 0.0250709 92.2894 0.0690216L106.842 16.1343C107.228 16.5608 107.45 17.1106 107.469 17.6857L107.794 27.6792C107.867 29.9032 105.159 31.0455 103.616 29.4416L91.2675 16.5999C91.1403 16.4676 90.9647 16.3929 90.7812 16.3929C90.5946 16.3929 90.4163 16.4701 90.2887 16.6064L78.2012 29.5138C76.6959 31.1212 74 30.056 74 27.8538V17.7565C74 17.1388 74.2354 16.5442 74.6583 16.094L89.7079 0.0694131C89.7495 0.0251213 89.8076 0 89.8683 0H91Z" fill="#FF7C40"/>
</svg>
